<svg xmlns="http://www.w3.org/2000/svg" width="32" height="32" viewBox="0 0 32 32" fill="none">
    <rect width="32" height="32" fill="url(#paint0_linear_1_2)" />
    <rect width="15" height="30" transform="translate(1 1)" fill="#020617" />
    <path
        d="M8.6 25.25C7.43333 25.25 6.40833 25.0333 5.525 24.6C4.65833 24.15 3.98333 23.525 3.5 22.725C3.03333 21.9083 2.8 20.95 2.8 19.85V11.9C2.8 10.7833 3.03333 9.825 3.5 9.025C3.98333 8.225 4.65833 7.60833 5.525 7.175C6.40833 6.725 7.43333 6.5 8.6 6.5C9.78333 6.5 10.8 6.725 11.65 7.175C12.5167 7.60833 13.1917 8.225 13.675 9.025C14.1583 9.825 14.4 10.7833 14.4 11.9H11.25C11.25 11.0333 11.0167 10.375 10.55 9.925C10.1 9.475 9.45 9.25 8.6 9.25C7.75 9.25 7.09167 9.475 6.625 9.925C6.15833 10.375 5.925 11.025 5.925 11.875V19.85C5.925 20.7 6.15833 21.3583 6.625 21.825C7.09167 22.275 7.75 22.5 8.6 22.5C9.45 22.5 10.1 22.275 10.55 21.825C11.0167 21.3583 11.25 20.7 11.25 19.85H14.4C14.4 20.9333 14.1583 21.8833 13.675 22.7C13.1917 23.5167 12.5167 24.15 11.65 24.6C10.8 25.0333 9.78333 25.25 8.6 25.25Z"
        fill="url(#paint1_linear_1_2)" />
    <path d="M21.925 25V9.65H17.15V6.75H29.85V9.65H25.075V25H21.925Z" fill="#020617" />
    <defs>
        <linearGradient id="paint0_linear_1_2" x1="0" y1="32" x2="32" y2="0"
            gradientUnits="userSpaceOnUse">
            <stop stop-color="#FBBF24" />
            <stop offset="1" stop-color="#34D399" />
        </linearGradient>
        <linearGradient id="paint1_linear_1_2" x1="-1.96351e-06" y1="32" x2="32" y2="3.77332e-07"
            gradientUnits="userSpaceOnUse">
            <stop stop-color="#FBBF24" />
            <stop offset="1" stop-color="#34D399" />
        </linearGradient>
    </defs>
</svg>